# xmcd
#
# Track frame offsets: 
#        150
#        21087
#        44893
#        62394
#        80957
#        111522
#        131138
#        159822
#        182158
#        228542
#
# Disc length: 3321 seconds
#
# Revision: 2
# Processed by: cddbd v1.5.2PL0 Copyright (c) Steve Scherf et al.
# Submitted via: ExactAudioCopy v1.0b3
#
DISCID=8b0cf70a
DTITLE=East India Youth - Culture Of Volume
DYEAR=2015
DGENRE=Electro
TTITLE0=The Juddering
TTITLE1=End Result
TTITLE2=Beaming White
TTITLE3=Turn Away
TTITLE4=Hearts That Never
TTITLE5=Entirety
TTITLE6=Carousel
TTITLE7=Don't Look Backwards
TTITLE8=Manner Of Words
TTITLE9=Montage Resolution
EXTD=YEAR: 2015
EXTT0=
EXTT1=
EXTT2=
EXTT3=
EXTT4=
EXTT5=
EXTT6=
EXTT7=
EXTT8=
EXTT9=
PLAYORDER=
